<?xml version="1.0" standalone="no"?>
<!DOCTYPE svg PUBLIC "-//W3C//DTD SVG 20010904//EN"
 "http://www.w3.org/TR/2001/REC-SVG-20010904/DTD/svg10.dtd">
<svg version="1.0" xmlns="http://www.w3.org/2000/svg"
 width="643.000000pt" height="643.000000pt" viewBox="0 0 643.000000 643.000000"
 preserveAspectRatio="xMidYMid meet">
<metadata>
Created by potrace 1.14, written by Peter Selinger 2001-2017
</metadata>
<g transform="translate(0.000000,643.000000) scale(0.100000,-0.100000)"
fill="#000000" stroke="none">
<path d="M3197 6209 c-20 -11 -49 -38 -65 -61 -29 -43 -134 -229 -231 -410
-47 -87 -72 -114 -83 -90 -3 6 -57 50 -193 157 -58 46 -233 159 -295 190 -85
43 -161 33 -218 -27 -23 -26 -46 -120 -67 -278 -3 -25 -8 -56 -10 -70 -3 -14
-7 -43 -10 -65 -16 -135 -42 -291 -51 -307 -4 -5 -110 29 -416 137 -38 13 -68
22 -68 19 0 -3 -8 0 -17 5 -71 37 -187 22 -236 -30 -28 -30 -46 -100 -42 -161
2 -29 6 -93 9 -143 7 -100 14 -181 21 -216 3 -12 7 -43 10 -68 3 -25 8 -62 11
-81 8 -52 8 -216 0 -229 -7 -11 -47 -10 -280 5 -50 3 -93 7 -98 10 -4 3 -53 7
-108 9 -130 4 -170 -14 -201 -90 -25 -62 -19 -81 98 -315 62 -126 113 -231
113 -234 0 -4 20 -49 45 -102 25 -52 43 -99 40 -104 -3 -5 -51 -26 -108 -48
-56 -22 -111 -43 -122 -47 -11 -5 -22 -9 -25 -10 -23 -6 -58 -18 -75 -25 -20
-8 -44 -16 -57 -19 -4 -1 -48 -22 -98 -47 -105 -53 -134 -86 -133 -149 1 -60
20 -93 83 -142 62 -49 55 -44 130 -98 30 -22 57 -43 58 -47 2 -5 10 -8 17 -8
7 0 15 -4 17 -8 2 -5 59 -45 128 -90 165 -107 173 -113 163 -122 -9 -8 -56
-35 -193 -108 -271 -146 -324 -186 -336 -248 -14 -76 17 -120 121 -172 93 -46
196 -78 357 -108 82 -16 148 -33 148 -38 0 -11 -91 -140 -102 -144 -4 -2 -8
-7 -8 -12 0 -4 -34 -57 -75 -118 -41 -61 -75 -113 -75 -116 0 -4 -11 -23 -24
-44 -12 -20 -24 -41 -26 -47 -2 -5 -10 -26 -18 -45 -34 -82 -18 -164 40 -200
29 -19 43 -21 113 -15 80 6 108 10 155 19 14 3 44 8 65 10 43 5 208 32 240 39
11 3 58 12 105 21 235 43 213 41 205 14 -13 -44 -16 -56 -20 -77 -2 -11 -13
-53 -24 -93 -69 -244 -118 -487 -115 -569 3 -97 53 -151 143 -152 43 -1 58 7
171 83 69 46 133 92 142 101 10 10 31 26 48 35 16 10 30 21 30 25 0 3 22 21
50 40 27 19 50 37 50 40 0 4 34 30 75 58 61 42 75 49 76 34 0 -10 2 -31 4 -48
1 -16 5 -61 9 -100 3 -38 8 -81 11 -95 2 -14 7 -49 10 -79 4 -30 9 -63 11 -75
4 -21 11 -59 19 -106 31 -177 50 -220 118 -265 35 -22 117 -14 154 15 24 19
60 65 106 134 23 36 131 181 143 193 6 7 51 64 99 128 49 63 92 115 96 115 8
0 60 -94 58 -105 -2 -15 126 -256 159 -300 66 -87 137 -119 212 -96 56 16 97
63 138 155 54 120 202 408 285 554 l24 43 114 -111 c128 -124 290 -255 364
-294 95 -51 179 -24 227 74 14 30 25 57 23 59 -3 2 0 11 4 20 5 9 11 30 14 46
3 17 10 50 15 75 6 25 13 61 16 81 3 20 8 42 10 50 3 8 8 28 11 44 13 79 61
265 68 265 4 0 81 -37 170 -83 156 -80 409 -184 472 -194 17 -3 32 -5 35 -6 3
-1 21 5 40 13 62 26 100 79 95 134 -4 32 -51 202 -100 350 -14 44 -27 89 -30
100 -2 12 -20 77 -39 145 -35 123 -37 144 -13 136 29 -10 487 -37 577 -35 147
5 193 16 234 59 50 52 44 117 -17 216 -21 35 -52 79 -64 95 -7 8 -44 56 -83
105 -39 50 -83 105 -97 123 -15 19 -52 70 -84 115 -32 45 -62 87 -67 92 -5 6
-16 22 -26 37 -21 32 -57 8 338 222 200 109 247 154 248 238 1 53 -12 86 -51
131 -32 36 -172 137 -190 137 -6 0 -11 5 -11 10 0 6 -4 10 -10 10 -17 0 -285
174 -296 192 -4 6 87 103 203 217 221 218 246 251 249 335 1 45 -2 52 -40 90
-41 42 -76 55 -191 72 -22 3 -65 12 -95 19 -30 8 -67 16 -82 19 -16 4 -38 8
-50 11 -13 2 -39 7 -58 9 -19 3 -44 7 -55 9 -11 3 -40 8 -65 13 -25 4 -48 9
-52 10 -5 1 -15 2 -23 3 -26 2 -25 4 100 266 61 129 98 215 90 215 -2 0 0 12
6 28 26 65 -3 163 -58 199 -27 18 -124 22 -188 8 -30 -6 -54 -9 -130 -20 -22
-3 -51 -7 -65 -10 -54 -11 -247 -46 -284 -51 -24 -4 -36 -2 -32 4 3 5 8 27 12
48 9 63 11 76 28 149 10 39 19 86 22 105 3 19 9 53 13 75 10 55 5 116 -12 157
-18 43 -75 89 -114 90 -75 3 -94 -5 -254 -105 -90 -56 -199 -122 -241 -145
l-78 -43 -2 33 c0 18 -2 44 -4 58 -1 14 -5 88 -9 165 -11 214 -15 240 -51 279
-36 38 -73 54 -121 52 -51 -3 -73 -19 -238 -178 -232 -224 -269 -258 -276
-250 -8 8 -61 164 -114 332 -20 63 -47 132 -61 152 -43 66 -121 90 -187 57z
m188 -1644 c33 -4 69 -9 80 -10 11 -2 47 -10 80 -19 33 -9 67 -19 75 -21 50
-13 230 -90 240 -104 3 -3 21 -14 40 -25 67 -36 177 -126 261 -213 184 -191
317 -458 355 -708 16 -111 19 -150 18 -230 -1 -73 -12 -212 -19 -235 -1 -3 -5
-23 -9 -45 -30 -159 -127 -373 -242 -535 -37 -53 -189 -205 -253 -253 -66 -50
-169 -114 -226 -140 -62 -29 -185 -76 -185 -71 0 3 -8 0 -19 -5 -19 -11 -39
-15 -164 -35 -92 -15 -285 -13 -377 3 -169 31 -358 104 -479 185 -29 20 -55
36 -57 36 -10 0 -171 146 -208 188 -17 20 -39 46 -49 57 -32 35 -124 177 -157
245 -32 63 -78 177 -86 213 -2 9 -6 25 -8 35 -55 213 -59 511 -10 687 26 92
61 192 90 254 151 325 422 568 767 690 48 17 87 28 87 26 0 -2 12 0 27 6 27
10 46 13 148 25 33 3 61 7 62 8 5 4 168 -2 218 -9z"/>
</g>
</svg>
